PathFileType	4	(X/Y/Z)	./resultDataOpenSim/trcMotMarkerGrf/sub06/qtm-02-08.trc
DataRate	CameraRate	NumFrames	NumMarkers	Units	OrigDataRate	OrigDataStartFrame	OrigNumFrames
250.000000	250.000000	14	24	m	250.000000	62	489
Frame#	Time	L.Toe.Tip			R.Toe.Tip			L.Ankle.Lat			R.Ankle.Lat			L.Ankle.Med			R.Ankle.Med			L.Heel			R.Heel			L.Knee.Lat			R.Knee.Lat			L.Knee.Med			R.Knee.Med			L.Thigh.Upper			R.Thigh.Upper			L.ASIS			R.ASIS			V.Sacral			L.Acromium			R.Acromium			C7			L.Elbow			R.Elbow			L.Wrist.Lat			R.Wrist.Lat
		X1	Y1	Z1	X2	Y2	Z2	X3	Y3	Z3	X4	Y4	Z4	X5	Y5	Z5	X6	Y6	Z6	X7	Y7	Z7	X8	Y8	Z8	X9	Y9	Z9	X10	Y10	Z10	X11	Y11	Z11	X12	Y12	Z12	X13	Y13	Z13	X14	Y14	Z14	X15	Y15	Z15	X16	Y16	Z16	X17	Y17	Z17	X18	Y18	Z18	X19	Y19	Z19	X20	Y20	Z20	X21	Y21	Z21	X22	Y22	Z22	X23	Y23	Z23	X24	Y24	Z24

62	0.244	-1.3487675	0.078469207	-0.094691831	-0.74597773	0.036190312	0.10750763	-1.3362855	0.20837061	-0.12611091	-0.87934453	0.061973018	0.129721	-1.3205943	0.21079718	-0.043790228	-0.8627709	0.078951037	0.042397547	-1.3807774	0.26720187	-0.080462251	-0.93702396	0.037649388	0.069393755	-0.99341459	0.37365255	-0.12971365	-0.8131575	0.44267834	0.15093884	-0.99793039	0.36021458	-0.01097731	-0.8512428	0.42812142	0.028261188	-0.98671632	0.76726598	-0.13829056	-0.95950508	0.79164557	0.20902552	-0.90623185	0.81590881	-0.095499088	-0.88172406	0.83548857	0.1447382	-1.078198	0.90876271	0.038806119	-0.92458661	1.3099088	-0.14203862	-0.94442144	1.2882078	0.22016497	-1.0082369	1.3453548	0.035794078	-0.95631338	0.98972608	-0.20664155	-1.0727628	0.99639179	0.26100694	-0.77574429	0.82081932	-0.19164807	-0.9884653	0.77655473	0.31558038
63	0.248	-1.3336804	0.079676536	-0.093217304	-0.74613361	0.03618819	0.10765961	-1.3232373	0.20969963	-0.12479935	-0.87957343	0.06193909	0.12984912	-1.3078974	0.21252106	-0.042467514	-0.86284511	0.07905746	0.042577626	-1.3686822	0.26802778	-0.079273546	-0.93709061	0.037715873	0.069397431	-0.98103194	0.37503882	-0.12951522	-0.81175188	0.44241344	0.15155843	-0.9854071	0.36192577	-0.010513783	-0.84920739	0.42839969	0.028912824	-0.9807813	0.76914337	-0.13683882	-0.95505738	0.79271855	0.20946767	-0.90029751	0.81780464	-0.094977907	-0.87599216	0.83673642	0.14570446	-1.0726213	0.91082023	0.036923474	-0.91886876	1.3116205	-0.14170337	-0.93797919	1.290164	0.2205493	-1.0020549	1.3470716	0.036201663	-0.95193058	0.99154676	-0.20682417	-1.0648005	0.99783715	0.26232838	-0.77207454	0.82150137	-0.19155868	-0.97884181	0.77854533	0.31629657
64	0.252	-1.3184265	0.080650237	-0.091824795	-0.7462787	0.03618707	0.10780717	-1.3100147	0.21075422	-0.12338038	-0.87981244	0.061900416	0.12998941	-1.2952816	0.21393697	-0.041067909	-0.86291849	0.079158392	0.042771777	-1.3564645	0.26858119	-0.077969902	-0.93715266	0.037782779	0.069406474	-0.96867686	0.37659599	-0.12926292	-0.81092829	0.44217284	0.15221514	-0.97253983	0.36374881	-0.010072383	-0.84721808	0.42868189	0.029469669	-0.97475071	0.77106533	-0.13522281	-0.95104757	0.79369253	0.20977714	-0.89438127	0.81968254	-0.094465664	-0.87031981	0.83803351	0.1466974	-1.066814	0.91279057	0.03601009	-0.9131727	1.3133695	-0.14138333	-0.93156934	1.2921635	0.22091531	-0.99589727	1.3488021	0.036585244	-0.94740419	0.99347934	-0.20668954	-1.0569278	0.99930585	0.26353234	-0.76847836	0.82223741	-0.19148068	-0.96908915	0.78065897	0.31698702
65	0.256	-1.302977	0.081418037	-0.090564404	-0.74641048	0.036190852	0.10794345	-1.296745	0.21154082	-0.12187694	-0.88005021	0.061858839	0.13013317	-1.2824883	0.21507934	-0.039659348	-0.86298364	0.079260757	0.042970269	-1.3441588	0.26888779	-0.076648882	-0.93720856	0.037854373	0.0694224	-0.95637012	0.37831854	-0.12896768	-0.81031304	0.44197467	0.15291745	-0.95939664	0.36568032	-0.0096381552	-0.84526768	0.42897127	0.029938219	-0.96862164	0.77300406	-0.13376341	-0.94702778	0.79462448	0.21011456	-0.8885176	0.82152574	-0.09398043	-0.86469496	0.83937356	0.14771069	-1.0607954	0.91458297	0.036645427	-0.90748932	1.3151511	-0.14107188	-0.92519091	1.2942129	0.22126314	-0.98976145	1.3505515	0.036959999	-0.94274177	0.99550253	-0.20624018	-1.0491457	1.0007919	0.26461804	-0.76493799	0.82302402	-0.19141686	-0.95927446	0.78285485	0.3176459
66	0.26	-1.2872837	0.082006837	-0.089503143	-0.74652962	0.036203071	0.10806385	-1.2834681	0.21207469	-0.12035217	-0.88027792	0.061819856	0.13027765	-1.2693262	0.21599039	-0.038291286	-0.86304073	0.079372731	0.043156702	-1.3317445	0.26892963	-0.075345881	-0.9372589	0.037935234	0.069447031	-0.94411671	0.3802143	-0.1286481	-0.80947455	0.441853	0.15361441	-0.9462417	0.36770939	-0.0091884041	-0.84340761	0.42928171	0.030373956	-0.96245062	0.77496524	-0.13265546	-0.94303993	0.79550722	0.21047457	-0.88274614	0.82333857	-0.093556454	-0.8591059	0.84075136	0.14873864	-1.0547629	0.91614433	0.038950589	-0.90181447	1.316956	-0.14075866	-0.91883188	1.2963132	0.22159523	-0.98364317	1.3523206	0.037338951	-0.9380313	0.99757628	-0.20563267	-1.0414148	1.0023039	0.26564394	-0.76143465	0.82386172	-0.19135948	-0.9494274	0.78511276	0.31827039
67	0.264	-1.2713295	0.08244122	-0.088659486	-0.74663673	0.036224897	0.10816707	-1.2700698	0.21238195	-0.11889359	-0.88048812	0.061786665	0.13042058	-1.2557517	0.21668412	-0.036979552	-0.86309063	0.079501187	0.043324537	-1.3191413	0.26866946	-0.074022473	-0.93730511	0.038024725	0.069481701	-0.93191546	0.3822894	-0.12832573	-0.80832258	0.441798	0.15425748	-0.93331274	0.36981508	-0.0086899833	-0.8416476	0.42962271	0.030807855	-0.95623736	0.77694654	-0.13196052	-0.93899172	0.79638601	0.21088416	-0.87705135	0.82513614	-0.093165007	-0.8535293	0.84216842	0.14977824	-1.0488453	0.91751131	0.042486494	-0.89614889	1.3187754	-0.1404429	-0.91244373	1.2984454	0.22191166	-0.97753276	1.3541043	0.037728861	-0.93334458	0.99967469	-0.20498954	-1.0337054	1.0038503	0.26666157	-0.75796587	0.82474644	-0.19130834	-0.93955296	0.7874279	0.31885944
68	0.268	-1.255217	0.082730709	-0.087888043	-0.74673276	0.036252564	0.1082525	-1.2564201	0.21248633	-0.11755508	-0.88067172	0.061758248	0.1305544	-1.2418802	0.21714644	-0.03570165	-0.86313254	0.079647679	0.043480902	-1.3062879	0.26810619	-0.072623628	-0.93734909	0.038118538	0.069525004	-0.9197734	0.38453165	-0.12801263	-0.80701509	0.44176184	0.15482763	-0.92060654	0.37197493	-0.0081284162	-0.83993888	0.42998545	0.031224642	-0.94992314	0.77892487	-0.13168372	-0.93432939	0.79740076	0.21150546	-0.87134892	0.82694155	-0.092710089	-0.84790073	0.84363428	0.15083634	-1.0429849	0.91884196	0.04607872	-0.89049145	1.3206055	-0.14013022	-0.9059575	1.3005811	0.22221017	-0.97141764	1.3558948	0.038128822	-0.9287092	1.001787	-0.20435944	-1.0260077	1.0054298	0.26768937	-0.75454261	0.82566621	-0.19128015	-0.9296457	0.78979904	0.31941293
69	0.272	-1.2391478	0.082849393	-0.086913719	-0.74682034	0.036277763	0.10831726	-1.2425329	0.21239869	-0.11629325	-0.88081735	0.061733554	0.1306692	-1.2279225	0.21735974	-0.034421854	-0.86317141	0.079807126	0.043633034	-1.293219	0.26728417	-0.071138811	-0.9373951	0.038211005	0.069573735	-0.90769036	0.38691134	-0.12770566	-0.80569849	0.44171026	0.15533122	-0.90795114	0.37418279	-0.00753479	-0.83825678	0.43033713	0.031596791	-0.94348056	0.780883	-0.13174371	-0.92873004	0.79862099	0.21241651	-0.86553745	0.82877809	-0.092129515	-0.84209437	0.84515921	0.15193335	-1.0370477	0.92029898	0.048581188	-0.88482978	1.3224414	-0.13982057	-0.89935236	1.3027043	0.22249033	-0.96529101	1.3576856	0.038537685	-0.92412605	1.0039094	-0.20374932	-1.0183222	1.0070341	0.26872419	-0.7511681	0.82660772	-0.19129347	-0.91969916	0.79222033	0.3199302
70	0.276	-1.2231878	0.082759719	-0.085621772	-0.74690248	0.036293711	0.1083586	-1.2285219	0.21212246	-0.11501576	-0.88091524	0.06171578	0.13076053	-1.2139976	0.21732724	-0.033134625	-0.86322028	0.07997274	0.043778873	-1.2800219	0.26622993	-0.069598455	-0.93745061	0.038292276	0.069629123	-0.89565079	0.38939513	-0.12739343	-0.80442439	0.44164171	0.15578274	-0.89527635	0.37647927	-0.0069355918	-0.83663739	0.43064131	0.031921345	-0.93697689	0.78283898	-0.13188749	-0.92257929	0.79994435	0.2134623	-0.85956971	0.83065574	-0.09146827	-0.83597384	0.84674393	0.15308373	-1.0310002	0.92191627	0.049813399	-0.87914697	1.3242741	-0.13951099	-0.89269816	1.3048204	0.22275194	-0.95915721	1.3594718	0.038959796	-0.91958719	1.0060403	-0.20315159	-1.0106547	1.0086555	0.2697596	-0.74783547	0.8275623	-0.19135268	-0.90970966	0.79468002	0.32040727
71	0.28	-1.2071408	0.082469057	-0.084218885	-0.74698054	0.03630121	0.10837866	-1.2144596	0.21166276	-0.11368477	-0.88096508	0.061711237	0.13083185	-1.1999963	0.21707263	-0.031866446	-0.86329051	0.080141791	0.043911065	-1.2667684	0.26493101	-0.068011734	-0.93752444	0.038347836	0.06969938	-0.88364102	0.39196173	-0.12706817	-0.8031844	0.44157031	0.15618841	-0.88270641	0.37894854	-0.0062997276	-0.83512628	0.43089504	0.032228019	-0.93051381	0.78483026	-0.13184178	-0.91653629	0.8012153	0.21439578	-0.85350575	0.83256307	-0.090829898	-0.82952963	0.84837263	0.15427167	-1.0249279	0.92362321	0.05034307	-0.87343775	1.3260966	-0.13920654	-0.88609009	1.3069428	0.22299127	-0.953026	1.3612464	0.039399042	-0.91508287	1.0081761	-0.20255686	-1.0030119	1.0102889	0.27079369	-0.7445411	0.82852678	-0.19145239	-0.89967546	0.79716766	0.32083909
72	0.284	-1.1907594	0.082035486	-0.082990568	-0.74705562	0.036307477	0.10838239	-1.2003422	0.21102982	-0.11232299	-0.88098563	0.061722117	0.1308881	-1.185755	0.2166132	-0.030618831	-0.86338609	0.080316627	0.044023139	-1.2535316	0.26338316	-0.066331531	-0.93762068	0.038372788	0.069789621	-0.87166498	0.394608	-0.12673614	-0.80195689	0.4415138	0.15655505	-0.87032778	0.38164409	-0.0055968114	-0.83379915	0.43112107	0.032541674	-0.92412458	0.78687655	-0.13154975	-0.91100572	0.80236666	0.21505815	-0.8474715	0.83448323	-0.090274469	-0.82300594	0.85001139	0.15544442	-1.0189259	0.92533589	0.050717371	-0.86770787	1.3279073	-0.13891691	-0.87955519	1.3090732	0.22320478	-0.94690263	1.362999	0.039850495	-0.9106065	1.0103095	-0.20196188	-0.99540216	1.0119273	0.27182808	-0.74128824	0.82950249	-0.19159143	-0.88959595	0.79968157	0.32122783
73	0.288	-1.1739512	0.081513869	-0.082036151	-0.74713044	0.036319901	0.10837357	-1.1861416	0.21023597	-0.11095318	-0.88102475	0.061734023	0.1309271	-1.1712915	0.21594708	-0.029344448	-0.86350539	0.080500614	0.044114064	-1.2403528	0.26157075	-0.064512339	-0.93773313	0.038388694	0.069891464	-0.8597414	0.39733981	-0.12641158	-0.80070962	0.44149428	0.1569105	-0.85798889	0.38452697	-0.0048804593	-0.83278031	0.43132092	0.032846643	-0.91777075	0.78897058	-0.1311281	-0.90603336	0.80342435	0.21542382	-0.84151902	0.83641881	-0.089777784	-0.81687164	0.85161638	0.1565153	-1.0130216	0.92699597	0.051169526	-0.86196412	1.3297062	-0.1386394	-0.87305909	1.3111986	0.2233944	-0.94078753	1.3647184	0.040301648	-0.90615819	1.0124333	-0.20137179	-0.98783529	1.0135615	0.27286575	-0.73807639	0.8304921	-0.19177449	-0.87947454	0.8022261	0.32158403
74	0.292	-1.1567515	0.080919078	-0.081282672	-0.74720517	0.036339983	0.10835692	-1.1718371	0.20928347	-0.10957419	-0.88113679	0.061720276	0.13094319	-1.1567206	0.21507652	-0.028006825	-0.86363734	0.080692583	0.044192621	-1.2271308	0.25942918	-0.06265294	-0.93784948	0.038428454	0.069992338	-0.84788846	0.40015272	-0.12609167	-0.79937495	0.4415305	0.15729847	-0.84550789	0.38749436	-0.0042457456	-0.83206023	0.43148047	0.033122056	-0.91140217	0.79108565	-0.13067958	-0.90130388	0.8044433	0.21561351	-0.83555991	0.83838581	-0.089273876	-0.81146543	0.85316063	0.15741211	-1.0071806	0.92858378	0.051723818	-0.85621752	1.3314865	-0.13835475	-0.86656791	1.3133005	0.22356739	-0.93468499	1.3663963	0.040742236	-0.90174079	1.0145441	-0.20079319	-0.98031958	1.0151869	0.27391125	-0.73489123	0.83149284	-0.19199962	-0.86932608	0.80480298	0.32191553
75	0.296	-1.1392315	0.080241252	-0.080619304	-0.74727146	0.03636132	0.1083401	-1.1574184	0.20815736	-0.10817867	-0.88131127	0.061678387	0.13094814	-1.1420683	0.21402293	-0.026625089	-0.8637601	0.080886446	0.044276119	-1.2136955	0.25693262	-0.060964063	-0.93796016	0.038501716	0.070093972	-0.83611104	0.40302067	-0.12574872	-0.79790295	0.44161807	0.15773921	-0.8329743	0.39044857	-0.0037363508	-0.8314546	0.43159666	0.033376785	-0.90499439	0.79318577	-0.13024565	-0.89625265	0.80546447	0.21585925	-0.82945364	0.84038877	-0.088713697	-0.80654457	0.85466577	0.15817167	-1.0013371	0.93011688	0.052363223	-0.8504863	1.3332289	-0.138047	-0.86007061	1.3153634	0.22373156	-0.92860383	1.3680293	0.041171215	-0.89735421	1.0166377	-0.20023075	-0.97285435	1.0168039	0.27496749	-0.73171559	0.83249122	-0.19225607	-0.85917413	0.80740893	0.32221893
